# Blender v2.80 (sub 75) OBJ File: 'doom.blend'
# www.blender.org
mtllib doom.mtl
o Plane
v -4.735829 -0.000027 6.335058
v 18.228378 -0.000027 6.335058
v -4.735829 -0.000027 -16.629150
v 13.080502 -0.000027 -17.241993
v -1.426479 -0.000027 -18.794529
v 10.955980 -0.000027 -18.794527
v 32.732319 -0.000027 6.335058
v 23.457968 -0.000027 -17.241993
v -4.735829 -0.000027 -13.746777
v 13.726643 -0.000027 -14.282698
v 24.622046 -0.000027 -14.282698
v 39.800438 -0.000027 6.335058
v 29.688213 -0.000027 -11.136772
v 29.579288 -0.000027 6.335058
v 39.902260 -0.000027 -11.136772
v 21.201996 -0.000027 -17.241993
v 22.253479 -0.000027 -14.282698
v 10.955980 7.999973 -18.794527
v 13.080502 7.999973 -17.241993
v 21.201996 7.999973 -17.241993
v -1.426479 7.999973 -18.794529
v 23.457968 1.999973 -17.241993
v 24.622046 1.999973 -14.282698
v 29.688213 1.999973 -11.136772
v 39.902260 1.999973 -11.136772
v 21.201996 1.999973 -17.241993
v 21.201996 1.999973 -22.892818
v 31.817978 1.999973 -22.892818
v 31.817978 1.999973 -24.926168
v 32.598217 1.999973 -24.926168
v 35.884682 1.999973 -21.734282
v 40.022316 1.999973 -21.734282
v 44.254524 1.999973 -18.660610
v 44.254524 1.999973 -17.701391
v 39.902260 1.999973 -17.690783
v 21.201996 7.999973 -22.892818
v 31.817978 7.999973 -22.892818
v 32.598217 7.999973 -24.926168
v 31.817978 7.999973 -24.926168
v 35.884682 7.999973 -21.734282
v 40.022316 7.999973 -21.734282
v 44.254524 7.999973 -18.660610
v 44.254524 7.999973 -17.701391
v 39.902260 7.999973 -11.136772
v 39.902260 7.999973 -17.690783
v -4.735829 7.999973 -16.629150
v 0.743231 -0.000027 -2.125669
v 8.524621 -0.000027 -0.046433
v -0.184428 -0.000027 -9.203318
v 4.686033 -0.000027 -11.506471
v 17.641266 -0.000027 -1.389939
v 12.363209 -0.000027 -11.506471
v 19.816465 -0.000027 -5.804315
v 17.001503 -0.000027 -10.162965
v 0.743231 14.999973 -2.125669
v 8.524621 14.999973 -0.046433
v -0.184428 14.999973 -9.203318
v 4.686033 14.999973 -11.506471
v 17.641266 14.999973 -1.389939
v 12.363209 14.999973 -11.506471
v 19.816465 14.999973 -5.804315
v 17.001503 14.999973 -10.162965
v -4.735829 7.999973 6.335058
v 39.800438 7.999973 6.335058
v 37.891388 -0.000027 -11.136772
v 31.699076 -0.000027 -11.136772
v 37.891388 1.999973 -11.136772
v 31.699076 1.999973 -11.136772
v 37.891388 -0.000027 -7.073495
v 31.699076 -0.000027 -7.073495
v 31.699076 -0.000027 -10.459559
v 31.699076 -0.000027 -9.782347
v 31.699076 -0.000027 -9.105134
v 31.699076 -0.000027 -8.427921
v 31.699076 -0.000027 -7.750708
v 31.699076 1.999973 -10.459558
v 37.891388 1.999973 -10.459559
v 37.891388 -0.000027 -7.750708
v 37.891388 -0.000027 -8.427921
v 37.891388 -0.000027 -9.105134
v 37.891388 -0.000027 -9.782347
v 37.891388 -0.000027 -10.459558
v 31.699076 0.333306 -7.073495
v 37.891388 0.333306 -7.073495
v 37.891388 1.666640 -10.459559
v 37.891388 1.666640 -9.782347
v 37.891388 1.333306 -9.782347
v 37.891388 1.333306 -9.105134
v 37.891388 0.999973 -9.105134
v 37.891388 0.999973 -8.427921
v 37.891388 0.666640 -8.427921
v 37.891388 0.666640 -7.750708
v 37.891388 0.333306 -7.750708
v 31.699076 1.666640 -10.459558
v 31.699076 1.333306 -9.782347
v 31.699076 1.666640 -9.782347
v 31.699076 0.999973 -9.105134
v 31.699076 1.333306 -9.105134
v 31.699076 0.666640 -8.427921
v 31.699076 0.999973 -8.427921
v 31.699076 0.333306 -7.750708
v 31.699076 0.666640 -7.750708
vt 0.000000 0.874484
vt 1.000000 0.874484
vt 1.000000 1.000000
vt 0.000000 1.000000
vt 1.000000 1.000000
vt 0.000000 1.000000
vt 1.000000 0.874484
vt 1.000000 0.000000
vt 1.000000 0.000000
vt 1.000000 0.874484
vt 1.000000 1.000000
vt 1.000000 1.000000
vt 0.000000 0.000000
vt 1.000000 0.000000
vt 1.000000 0.000000
vt 1.000000 0.874484
vt 0.333333 0.291495
vt 0.666667 0.582989
vt 0.666667 0.582989
vt 0.333333 0.291495
vt 1.000000 1.000000
vt 1.000000 1.000000
vt 1.000000 0.874484
vt 0.000000 0.000000
vt 0.000000 0.000000
vt 0.000000 0.000000
vt 0.000000 0.000000
vt 1.000000 0.874484
vt 1.000000 1.000000
vt 1.000000 1.000000
vt 1.000000 1.000000
vt 0.000000 1.000000
vt 0.000000 0.000000
vt 0.000000 0.000000
vt 0.000000 0.000000
vt 0.000000 0.000000
vt 0.000000 0.000000
vt 0.000000 0.000000
vt 0.000000 0.000000
vt 0.000000 0.000000
vt 0.000000 0.000000
vt 0.000000 0.000000
vt 0.000000 0.000000
vt 0.000000 0.000000
vt 0.000000 0.000000
vt 0.000000 0.000000
vt 0.000000 0.000000
vt 0.000000 0.000000
vt 0.000000 0.000000
vt 0.000000 0.000000
vt 0.000000 0.000000
vt 0.000000 1.000000
vt 0.000000 0.000000
vt 1.000000 0.000000
vt 1.000000 1.000000
vt 0.000000 1.000000
vt 1.000000 0.000000
vt 1.000000 1.000000
vt 1.000000 0.000000
vt 1.000000 1.000000
vt 1.000000 1.000000
vt 1.000000 1.000000
vt 1.000000 0.000000
vt 1.000000 0.000000
vt 1.000000 0.000000
vt 1.000000 1.000000
vt 0.000000 1.000000
vt 0.000000 0.000000
vt 0.000000 0.000000
vt 0.000000 0.000000
vt 0.000000 0.000000
vt 0.000000 0.000000
vt 0.000000 0.000000
vt 0.666667 0.582989
vt 0.666667 0.582989
vt 0.666667 0.582989
vt 0.666667 0.582989
vt 0.333333 0.291495
vt 0.333333 0.291495
vt 0.333333 0.291495
vt 0.333333 0.291495
vt 0.333333 0.291495
vt 0.666667 0.582989
vt 0.666667 0.582989
vt 0.333333 0.291495
vt 0.333333 0.291495
vt 0.666667 0.582989
vt 0.333333 0.291495
vt 0.666667 0.582989
vt 0.666667 0.582989
vt 0.333333 0.291495
vt 0.333333 0.291495
vt 0.666667 0.582989
vt 0.666667 0.582989
vt 0.333333 0.291495
vt 0.333333 0.291495
vt 0.666667 0.582989
vt 0.000000 0.000000
vt 0.000000 0.000000
vt 0.000000 0.000000
vt 0.000000 0.000000
vt 0.000000 0.000000
vt 0.000000 0.000000
vt 0.000000 0.000000
vt 0.000000 0.000000
vt 0.000000 0.000000
vt 0.000000 0.000000
vn 0.0000 1.0000 0.0000
vn 0.0000 0.0000 1.0000
vn -0.9306 0.0000 0.3661
vn 1.0000 0.0000 0.0000
vn -0.5275 0.0000 0.8495
vn -0.5900 0.0000 0.8074
vn -0.6967 0.0000 0.7174
vn -0.5876 0.0000 0.8091
vn -1.0000 0.0000 0.0000
vn -0.0024 0.0000 -1.0000
vn 0.5475 0.0000 0.8368
vn 0.2782 0.0000 -0.9605
vn 0.8400 0.0000 -0.5425
vn 0.1458 0.0000 0.9893
vn -0.4275 0.0000 -0.9040
vn -0.2581 0.0000 0.9661
vn 0.8970 0.0000 0.4420
vn 0.0000 0.0000 -1.0000
vn -0.9915 0.0000 0.1300
vn -1.0000 0.0000 -0.0058
usemtl None
s off
f 9/1/1 10/2/1 4/3/1 3/4/1
f 3/4/1 4/3/1 6/5/1 5/6/1
f 17/7/1 14/8/1 7/9/1 11/10/1
f 16/11/1 17/7/1 11/10/1 8/12/1
f 1/13/1 2/14/1 10/2/1 9/1/1
f 11/10/1 7/9/1 12/15/1 13/16/1
f 67/17/1 68/18/1 76/19/1 77/20/1
f 4/3/1 10/2/1 17/7/1 16/11/1
f 10/2/1 2/14/1 14/8/1 17/7/1
f 16/11/2 8/12/2 22/21/2 26/22/2
f 8/12/3 11/10/3 23/23/3 22/21/3
f 20/24/4 26/25/4 27/26/4 36/27/4
f 11/10/5 13/16/5 24/28/5 23/23/5
f 4/3/2 16/11/2 20/29/2 19/30/2
f 5/6/2 6/5/2 18/31/2 21/32/2
f 13/16/2 66/33/2 68/18/2 24/28/2
f 6/5/6 4/3/6 19/30/6 18/31/6
f 23/23/1 24/28/1 68/18/1 67/17/1 25/34/1 35/35/1 34/36/1 33/37/1 32/38/1 31/39/1 30/40/1 29/41/1 28/42/1 27/26/1 26/25/1 22/21/1
f 28/42/4 29/41/4 39/43/4 37/44/4
f 36/27/2 27/26/2 28/42/2 37/44/2
f 38/45/2 39/43/2 29/41/2 30/40/2
f 30/40/7 31/39/7 40/46/7 38/45/7
f 31/39/2 32/38/2 41/47/2 40/46/2
f 32/38/8 33/37/8 42/48/8 41/47/8
f 33/37/9 34/36/9 43/49/9 42/48/9
f 34/36/10 35/35/10 45/50/10 43/49/10
f 35/35/9 25/34/9 44/51/9 45/50/9
f 3/4/11 5/6/11 21/32/11 46/52/11
f 55/53/1 56/54/1 58/55/1 57/56/1
f 58/55/1 56/54/1 59/57/1 60/58/1
f 60/58/1 59/57/1 61/59/1 62/60/1
f 54/61/12 52/62/12 60/58/12 62/60/12
f 53/63/13 54/61/13 62/60/13 61/59/13
f 48/64/14 51/65/14 59/57/14 56/54/14
f 50/66/15 49/67/15 57/56/15 58/55/15
f 47/68/16 48/64/16 56/54/16 55/53/16
f 51/65/17 53/63/17 61/59/17 59/57/17
f 52/62/18 50/66/18 58/55/18 60/58/18
f 49/67/19 47/68/19 55/53/19 57/56/19
f 64/69/18 12/70/18 1/13/18 63/71/18
f 63/71/4 1/13/4 3/4/4 46/52/4
f 12/15/20 64/69/20 44/51/20 15/72/20
f 25/34/2 67/17/2 65/73/2 15/72/2
f 101/74/9 75/75/9 70/76/9 83/77/9
f 12/15/1 15/72/1 13/16/1
f 78/78/4 93/79/4 84/80/4 69/81/4
f 70/76/2 69/81/2 84/80/2 83/77/2
f 90/82/2 100/83/2 99/84/2 91/85/2
f 92/86/2 102/87/2 101/74/2 93/79/2
f 84/80/1 93/79/1 101/74/1 83/77/1
f 102/87/1 92/86/1 91/85/1 99/84/1
f 100/83/1 90/82/1 89/88/1 97/89/1
f 98/90/1 88/91/1 87/92/1 95/93/1
f 96/94/1 86/95/1 85/96/1 94/97/1
f 77/20/2 76/19/2 94/97/2 85/96/2
f 88/91/2 98/90/2 97/89/2 89/88/2
f 86/95/2 96/94/2 95/93/2 87/92/2
f 82/98/4 65/73/4 67/17/4 77/20/4
f 81/99/4 82/98/4 85/96/4 86/95/4
f 87/92/4 88/91/4 80/100/4 81/99/4
f 79/101/4 80/100/4 89/88/4 90/82/4
f 78/102/4 79/101/4 91/85/4 92/86/4
f 66/33/9 71/103/9 76/19/9 68/18/9
f 72/104/9 96/94/9 94/97/9 71/103/9
f 73/105/9 98/90/9 95/93/9 72/104/9
f 74/106/9 100/83/9 97/89/9 73/105/9
f 75/107/9 102/87/9 99/84/9 74/106/9
