# Blender v2.80 (sub 75) OBJ File: 'handheld_lantern.blend'
# www.blender.org
mtllib handheld_lantern.mtl
o Plane
v -0.147284 -0.000010 0.146799
v 0.146315 -0.000010 0.146799
v -0.147284 -0.000010 -0.146799
v 0.146315 -0.000010 -0.146799
v -0.112290 0.042459 0.111805
v 0.111321 0.042459 0.111805
v -0.112290 0.042459 -0.111805
v 0.111321 0.042459 -0.111805
v -0.112290 0.359649 0.111805
v 0.111321 0.359649 0.111805
v -0.112290 0.359649 -0.111805
v 0.111321 0.359649 -0.111805
v -0.133979 0.364957 0.133495
v 0.133010 0.364957 0.133495
v -0.133979 0.364957 -0.133495
v 0.133010 0.364957 -0.133495
v -0.051022 0.422025 0.011206
v 0.050054 0.422025 0.011206
v -0.051022 0.422025 -0.011206
v 0.050054 0.422025 -0.011206
v -0.042489 0.422025 0.011206
v 0.041520 0.422025 0.011206
v 0.041520 0.422025 -0.011206
v -0.042489 0.422025 -0.011206
v 0.050054 0.422025 -0.011206
v 0.041520 0.436322 -0.011206
v 0.050054 0.422025 0.011206
v 0.041520 0.436322 0.011206
v -0.042489 0.422025 0.011206
v 0.041520 0.422025 0.011206
v 0.041520 0.422025 -0.011206
v -0.042489 0.422025 -0.011206
v -0.051022 0.422025 0.011206
v -0.051022 0.422025 -0.011206
v -0.042489 0.422025 0.011206
v -0.042489 0.422025 -0.011206
v 0.050054 0.436322 0.011206
v 0.050054 0.436322 -0.011206
v -0.042489 0.422025 0.011206
v -0.042489 0.422025 -0.011206
v 0.041520 0.422025 0.011206
v 0.041520 0.422025 -0.011206
v 0.042418 0.449387 -0.009513
v 0.042418 0.449387 0.009513
v 0.041520 0.422025 0.011206
v 0.041520 0.422025 -0.011206
v -0.051022 0.422025 0.011206
v -0.051022 0.422025 -0.011206
v -0.042489 0.422025 0.011206
v -0.042489 0.422025 -0.011206
v 0.035174 0.449387 0.009513
v 0.035174 0.449387 -0.009513
v -0.042489 0.422025 0.011206
v -0.042489 0.422025 -0.011206
v 0.024411 0.459731 -0.006642
v 0.024411 0.459731 0.006642
v 0.041520 0.436322 0.011206
v 0.041520 0.436322 -0.011206
v -0.051022 0.436322 0.011206
v -0.051022 0.436322 -0.011206
v -0.042489 0.436322 0.011206
v -0.042489 0.436322 -0.011206
v 0.029469 0.461960 0.006642
v 0.029469 0.461960 -0.006642
v -0.042489 0.436322 0.011206
v -0.042489 0.436322 -0.011206
v 0.012116 0.471820 -0.002794
v 0.012116 0.471820 0.002794
v 0.035174 0.449387 0.009513
v 0.035174 0.449387 -0.009513
v -0.043387 0.449387 0.009513
v -0.043387 0.449387 -0.009513
v -0.036143 0.449387 0.009513
v -0.036143 0.449387 -0.009513
v 0.009989 0.468435 0.002794
v 0.009989 0.468435 -0.002794
v -0.036143 0.449387 0.009513
v -0.036143 0.449387 -0.009513
v 0.024411 0.459731 0.006642
v 0.024411 0.459731 -0.006642
v -0.030438 0.461960 0.006642
v -0.030438 0.461960 -0.006642
v -0.025380 0.459731 0.006642
v -0.025380 0.459731 -0.006642
v -0.025380 0.459731 0.006642
v -0.025380 0.459731 -0.006642
v 0.012116 0.471820 0.002794
v 0.012116 0.471820 -0.002794
v 0.009989 0.468435 0.002794
v 0.009989 0.468435 -0.002794
v -0.013085 0.471820 0.002794
v -0.013085 0.471820 -0.002794
v -0.010957 0.468435 0.002794
v -0.010957 0.468435 -0.002794
v -0.013085 0.471820 0.002794
v -0.013085 0.471820 -0.002794
v -0.010957 0.468435 0.002794
v -0.010957 0.468435 -0.002794
v -0.112290 0.042459 -0.111805
v -0.112290 0.042459 0.111805
v 0.111321 0.042459 0.111805
v 0.111321 0.042459 -0.111805
v -0.112290 0.359649 -0.111805
v -0.112290 0.359649 0.111805
v 0.111321 0.359649 0.111805
v 0.111321 0.359649 -0.111805
v -0.098672 0.060529 -0.104940
v -0.098672 0.060529 0.104940
v 0.097704 0.060529 0.104940
v 0.097704 0.060529 -0.104940
v -0.098672 0.341578 -0.104940
v -0.098672 0.341578 0.104940
v 0.097704 0.341578 0.104940
v 0.097704 0.341578 -0.104940
v -0.105425 0.061608 0.097314
v 0.104456 0.061608 0.097314
v 0.104456 0.061608 -0.097314
v -0.105425 0.061608 -0.097314
v -0.105425 0.340500 0.097314
v 0.104456 0.340500 0.097314
v 0.104456 0.340500 -0.097314
v -0.105425 0.340500 -0.097314
v -0.112290 0.042459 -0.111805
v -0.112290 0.042459 0.111805
v 0.111321 0.042459 0.111805
v 0.111321 0.042459 -0.111805
v -0.112290 0.359649 -0.111805
v -0.112290 0.359649 0.111805
v 0.111321 0.359649 0.111805
v 0.111321 0.359649 -0.111805
vt 0.000000 0.000000
vt 0.000000 1.000000
vt 1.000000 1.000000
vt 1.000000 0.000000
vt 0.000000 1.000000
vt 0.000000 0.000000
vt 0.000000 0.000000
vt 0.000000 1.000000
vt 1.000000 1.000000
vt 1.000000 0.000000
vt 1.000000 0.000000
vt 1.000000 1.000000
vt 1.000000 1.000000
vt 1.000000 0.000000
vt 0.000000 1.000000
vt 1.000000 1.000000
vt 0.000000 1.000000
vt 1.000000 1.000000
vt 1.000000 0.000000
vt 0.000000 0.000000
vt 0.000000 0.000000
vt 0.000000 1.000000
vt 0.000000 0.000000
vt 0.000000 0.000000
vt 0.000000 1.000000
vt 0.666667 1.000000
vt 0.666667 1.000000
vt 0.666667 1.000000
vt 0.666667 1.000000
vt 0.333333 1.000000
vt 1.000000 1.000000
vt 1.000000 0.000000
vt 0.666667 0.000000
vt 0.333333 0.000000
vt 1.000000 1.000000
vt 1.000000 0.000000
vt 0.333333 0.000000
vt 0.333333 0.000000
vt 0.333333 0.000000
vt 0.333333 0.000000
vt 0.333333 0.000000
vt 0.000000 0.000000
vt 0.666667 0.000000
vt 0.333333 1.000000
vt 0.333333 1.000000
vt 0.333333 1.000000
vt 0.000000 0.000000
vt 0.000000 1.000000
vt 0.666667 0.000000
vt 0.666667 0.000000
vt 0.333333 1.000000
vt 0.000000 1.000000
vt 0.333333 1.000000
vt 1.000000 1.000000
vt 1.000000 0.000000
vt 0.000000 0.000000
vt 0.000000 1.000000
vt 0.333333 1.000000
vt 0.333333 1.000000
vt 0.666667 0.000000
vt 0.333333 0.000000
vt 0.333333 0.000000
vt 0.666667 0.000000
vt 0.666667 1.000000
vt 0.666667 1.000000
vt 0.333333 1.000000
vt 0.333333 1.000000
vt 1.000000 0.000000
vt 0.666667 0.000000
vt 0.333333 0.000000
vt 0.333333 0.000000
vt 0.000000 0.000000
vt 0.666667 0.000000
vt 0.666667 1.000000
vt 0.666667 1.000000
vt 1.000000 1.000000
vt 1.000000 0.000000
vt 0.666667 0.000000
vt 0.333333 0.000000
vt 0.333333 0.000000
vt 0.000000 0.000000
vt 0.666667 0.000000
vt 0.666667 1.000000
vt 0.666667 1.000000
vt 1.000000 1.000000
vt 0.333333 1.000000
vt 0.000000 1.000000
vt 0.000000 1.000000
vt 0.333333 1.000000
vt 1.000000 0.000000
vt 0.666667 0.000000
vt 0.333333 0.000000
vt 0.333333 0.000000
vt 0.000000 0.000000
vt 0.666667 0.000000
vt 0.666667 1.000000
vt 0.666667 1.000000
vt 1.000000 1.000000
vt 0.333333 1.000000
vt 0.000000 1.000000
vt 0.333333 1.000000
vt 1.000000 1.000000
vt 1.000000 0.000000
vt 0.000000 1.000000
vt 0.000000 0.000000
vt 0.000000 0.000000
vt 0.000000 0.000000
vt 0.000000 0.000000
vt 0.000000 0.000000
vt 0.000000 0.000000
vt 0.000000 0.000000
vt 0.000000 0.000000
vt 0.000000 0.000000
vt 1.000000 1.000000
vt 0.000000 1.000000
vt 0.000000 0.000000
vt 0.000000 1.000000
vt 1.000000 1.000000
vt 1.000000 0.000000
vt 0.000000 0.000000
vt 1.000000 0.000000
vt 1.000000 0.000000
vt 0.967827 0.000000
vt 0.032173 0.000000
vt 0.032173 1.000000
vt 0.967827 1.000000
vt 0.032173 0.000000
vt 0.967827 0.000000
vt 0.967827 1.000000
vt 0.032173 1.000000
vt 0.000000 0.036338
vt 0.000000 0.963662
vt 1.000000 0.963662
vt 1.000000 0.036338
vt 0.000000 0.963662
vt 0.000000 0.036338
vt 1.000000 0.036338
vt 1.000000 0.963662
vn 0.0000 -1.0000 0.0000
vn 0.0000 0.0000 1.0000
vn 0.0000 0.6359 -0.7718
vn 0.0000 0.6359 0.7718
vn 0.7718 0.6359 0.0000
vn -0.7718 0.6359 0.0000
vn 0.2377 -0.9713 0.0000
vn -0.5668 0.8239 0.0000
vn -0.2377 -0.9713 0.0000
vn 0.0000 -0.9713 -0.2377
vn 0.0000 -0.9713 0.2377
vn 0.0000 0.9062 -0.4229
vn 0.0000 0.9062 0.4229
vn 0.5668 0.8239 0.0000
vn 0.0000 1.0000 0.0000
vn 1.0000 0.0000 0.0000
vn -1.0000 0.0000 0.0000
vn 0.0000 0.1285 0.9917
vn -0.8995 -0.4369 0.0000
vn 0.0000 0.1285 -0.9917
vn 0.8995 -0.4369 0.0000
vn 0.0000 0.0000 -1.0000
vn -0.0374 0.2063 0.9778
vn 0.0374 0.2063 0.9778
vn -0.6929 -0.7210 0.0000
vn -0.0374 0.2063 -0.9778
vn 0.6929 -0.7210 0.0000
vn 0.0374 0.2063 -0.9778
vn -0.8634 0.5046 0.0000
vn 0.8634 0.5046 0.0000
vn -0.1352 0.1730 0.9756
vn 0.1352 0.1730 0.9756
vn -0.5167 -0.8562 0.0000
vn -0.1352 0.1730 -0.9756
vn 0.5167 -0.8562 0.0000
vn 0.1352 0.1730 -0.9756
vn -0.6966 0.7175 0.0000
vn 0.6966 0.7175 0.0000
vn -0.8466 0.5322 0.0000
vn 0.8466 0.5322 0.0000
vn -0.4940 0.8694 0.0000
vn 0.4940 0.8694 0.0000
vn 0.0000 0.3551 0.9348
vn 0.0000 0.3551 -0.9348
vn 0.0000 -0.3551 0.9348
vn 0.0000 -0.3551 -0.9348
vn 0.4502 0.0000 -0.8929
vn -0.4502 0.0000 -0.8929
vn -0.4502 0.0000 0.8929
vn 0.4502 0.0000 0.8929
vn -0.9413 0.3375 0.0000
vn 0.9413 0.3375 0.0000
vn -0.9413 -0.3375 0.0000
vn 0.9413 -0.3375 0.0000
vn -0.9037 0.0000 0.4281
vn 0.9037 0.0000 0.4281
vn 0.9037 0.0000 -0.4281
vn -0.9037 0.0000 -0.4281
usemtl white
s off
f 1/1/1 3/2/1 4/3/1 2/4/1
f 7/5/2 5/6/2 100/7/2 99/8/2
f 4/3/3 3/2/3 7/5/3 8/9/3
f 1/1/4 2/4/4 6/10/4 5/6/4
f 2/4/5 4/3/5 8/9/5 6/10/5
f 3/2/6 1/1/6 5/6/6 7/5/6
f 10/11/7 12/12/7 16/13/7 14/14/7
f 11/15/2 12/12/2 106/16/2 103/17/2
f 6/10/2 8/9/2 102/18/2 101/19/2
f 9/20/2 11/15/2 103/17/2 104/21/2
f 15/22/8 13/23/8 17/24/8 19/25/8
f 11/15/9 9/20/9 13/23/9 15/22/9
f 12/12/10 11/15/10 15/22/10 16/13/10
f 9/20/11 10/11/11 14/14/11 13/23/11
f 23/26/2 31/27/2 46/28/2 42/29/2
f 16/13/12 15/22/12 19/25/12 24/30/12 23/26/12 20/31/12
f 13/23/13 14/14/13 18/32/13 22/33/13 21/34/13 17/24/13
f 14/14/14 16/13/14 20/31/14 18/32/14
f 18/32/2 20/31/2 25/35/2 27/36/2
f 21/34/2 29/37/2 39/38/2 35/39/2
f 35/39/2 39/38/2 53/40/2 49/41/2
f 17/24/2 21/34/2 35/39/2 33/42/2
f 29/37/15 30/43/15 31/27/15 32/44/15
f 32/44/2 24/30/2 36/45/2 40/46/2
f 33/42/2 35/39/2 49/41/2 47/47/2
f 23/26/2 24/30/2 32/44/2 31/27/2
f 24/30/2 19/25/2 34/48/2 36/45/2
f 21/34/2 22/33/2 30/43/2 29/37/2
f 30/43/2 22/33/2 41/49/2 45/50/2
f 22/33/2 18/32/2 27/36/2 41/49/2
f 39/38/2 40/46/2 54/51/2 53/40/2
f 36/45/2 34/48/2 48/52/2 50/53/2
f 29/37/2 32/44/2 40/46/2 39/38/2
f 19/25/2 17/24/2 33/42/2 34/48/2
f 27/36/16 25/35/16 38/54/16 37/55/16
f 48/52/17 47/47/17 59/56/17 60/57/17
f 54/51/2 50/53/2 62/58/2 66/59/2
f 41/49/2 27/36/2 37/55/2 28/60/2
f 49/41/2 53/40/2 65/61/2 61/62/2
f 47/47/2 49/41/2 61/62/2 59/56/2
f 46/28/17 45/50/17 57/63/17 58/64/17
f 42/29/2 46/28/2 58/64/2 26/65/2
f 40/46/2 36/45/2 50/53/2 54/51/2
f 31/27/2 30/43/2 45/50/2 46/28/2
f 34/48/2 33/42/2 47/47/2 48/52/2
f 20/31/2 23/26/2 42/29/2 25/35/2
f 66/59/2 62/58/2 74/66/2 78/67/2
f 28/60/18 37/55/18 44/68/18 51/69/18
f 61/62/2 65/61/2 77/70/2 73/71/2
f 59/56/18 61/62/18 73/71/18 71/72/18
f 58/64/19 57/63/19 69/73/19 70/74/19
f 26/65/2 58/64/2 70/74/2 52/75/2
f 38/54/20 26/65/20 52/75/20 43/76/20
f 65/61/21 66/59/21 78/67/21 77/70/21
f 45/50/2 41/49/2 28/60/2 57/63/2
f 50/53/22 48/52/22 60/57/22 62/58/22
f 53/40/16 54/51/16 66/59/16 65/61/16
f 25/35/22 42/29/22 26/65/22 38/54/22
f 51/69/23 44/68/23 63/77/23 56/78/23
f 73/71/2 77/70/2 85/79/2 83/80/2
f 71/72/24 73/71/24 83/80/24 81/81/24
f 70/74/25 69/73/25 79/82/25 80/83/25
f 52/75/2 70/74/2 80/83/2 55/84/2
f 43/76/26 52/75/26 55/84/26 64/85/26
f 77/70/27 78/67/27 86/86/27 85/79/27
f 74/66/28 72/87/28 82/88/28 84/89/28
f 60/57/29 59/56/29 71/72/29 72/87/29
f 37/55/30 38/54/30 43/76/30 44/68/30
f 57/63/2 28/60/2 51/69/2 69/73/2
f 62/58/20 60/57/20 72/87/20 74/66/20
f 56/78/31 63/77/31 68/90/31 75/91/31
f 83/80/2 85/79/2 97/92/2 93/93/2
f 81/81/32 83/80/32 93/93/32 91/94/32
f 80/83/33 79/82/33 89/95/33 90/96/33
f 55/84/2 80/83/2 90/96/2 76/97/2
f 64/85/34 55/84/34 76/97/34 67/98/34
f 85/79/35 86/86/35 98/99/35 97/92/35
f 84/89/36 82/88/36 92/100/36 94/101/36
f 78/67/2 74/66/2 84/89/2 86/86/2
f 72/87/37 71/72/37 81/81/37 82/88/37
f 44/68/38 43/76/38 64/85/38 63/77/38
f 69/73/2 51/69/2 56/78/2 79/82/2
f 67/98/2 76/97/2 90/96/2 88/102/2
f 75/91/2 68/90/2 87/103/2 89/95/2
f 89/95/39 87/103/39 88/102/39 90/96/39
f 68/90/2 67/98/2 88/102/2 87/103/2
f 94/101/2 92/100/2 96/104/2 98/99/2
f 95/105/40 97/92/40 98/99/40 96/104/40
f 91/94/2 93/93/2 97/92/2 95/105/2
f 92/100/2 91/94/2 95/105/2 96/104/2
f 86/86/2 84/89/2 94/101/2 98/99/2
f 82/88/41 81/81/41 91/94/41 92/100/41
f 63/77/42 64/85/42 67/98/42 68/90/42
f 79/82/2 56/78/2 75/91/2 89/95/2
f 89/106/1 75/107/1 93/108/1 97/109/1 98/110/1 94/111/1 76/112/1 90/113/1
f 68/90/15 88/102/15 67/98/15 92/100/15 96/104/15 91/94/15 95/105/15 87/103/15
f 87/103/22 75/91/22 89/95/22 97/92/22 93/93/22 91/94/22 95/105/22 68/90/22
f 90/96/2 88/102/2 92/100/2 96/104/2 94/101/2 98/99/2
f 103/17/2 106/16/2 130/114/2 127/115/2
f 99/8/2 100/7/2 124/116/2 123/117/2
f 101/19/2 102/18/2 126/118/2 125/119/2
f 104/21/2 103/17/2 127/115/2 128/120/2
f 10/11/2 9/20/2 104/21/2 105/121/2
f 8/9/2 7/5/2 99/8/2 102/18/2
f 5/6/2 6/10/2 101/19/2 100/7/2
f 12/12/2 10/11/2 105/121/2 106/16/2
f 105/121/2 104/21/2 128/120/2 129/122/2
f 102/18/2 99/8/2 123/117/2 126/118/2
f 100/7/2 101/19/2 125/119/2 124/116/2
f 106/16/2 105/121/2 129/122/2 130/114/2
f 109/123/43 108/124/43 124/116/43 125/119/43
f 107/125/44 110/126/44 126/118/44 123/117/44
f 112/127/45 113/128/45 129/122/45 128/120/45
f 114/129/46 111/130/46 127/115/46 130/114/46
f 111/130/47 107/125/47 123/117/47 127/115/47
f 110/126/48 114/129/48 130/114/48 126/118/48
f 113/128/49 109/123/49 125/119/49 129/122/49
f 108/124/50 112/127/50 128/120/50 124/116/50
f 115/131/51 118/132/51 123/117/51 124/116/51
f 117/133/52 116/134/52 125/119/52 126/118/52
f 122/135/53 119/136/53 128/120/53 127/115/53
f 120/137/54 121/138/54 130/114/54 129/122/54
f 118/132/55 122/135/55 127/115/55 123/117/55
f 121/138/56 117/133/56 126/118/56 130/114/56
f 116/134/57 120/137/57 129/122/57 125/119/57
f 119/136/58 115/131/58 124/116/58 128/120/58
usemtl yellow
f 110/126/22 107/125/22 111/130/22 114/129/22
f 108/124/2 109/123/2 113/128/2 112/127/2
f 116/134/16 117/133/16 121/138/16 120/137/16
f 118/132/17 115/131/17 119/136/17 122/135/17
l 90 94
